<svg xmlns="http://www.w3.org/2000/svg" width="5824" height="1024" fill="none"><path fill="#1C1E21" d="M19 19C31 7 47 0 64 0h896a64 64 0 0 1 64 64v324c0 42-57 60-82 26a937 937 0 0 0-121-139l-1-7c9-60-30-115-87-123-44-6-85 17-106 55-8 16-23 29-40 32-89 14-138 45-168 70-32 26-67 77-83 101-5 9-13 15-23 18l-165 55c-17 6-29 21-28 39 7 178 158 205 280 226 62 11 117 21 141 49 26 29 66 96 108 171 16 29-5 63-37 63H64a64 64 0 0 1-64-64V64c0-17 7-33 19-45Z"/><path fill="#1C1E21" d="M497 460a53 53 0 1 0 39-99 53 53 0 0 0-39 99Z"/><path fill="#1C1E21" fill-rule="evenodd" d="M1365 155v768h241a2519 2519 0 0 0 95-5c60-8 111-29 152-64 41-36 72-81 93-135 21-55 32-115 32-180s-11-125-32-180c-21-54-52-99-93-135s-92-57-152-65a465 465 0 0 0-95-4h-241Zm241 662h-127V261h127a1039 1039 0 0 1 87 5c39 7 70 24 94 50 25 26 43 59 55 97 11 39 17 81 17 126 0 43-5 85-17 123-11 39-29 72-54 99-24 26-56 43-95 50a998 998 0 0 1-87 5Z" clip-rule="evenodd"/><path fill="#1C1E21" d="M2112 252V144h112v108h-112ZM2112 923V347h112v576h-112ZM2631 939a258 258 0 0 1-245-148c-23-46-34-98-34-156 0-60 12-112 34-158a257 257 0 0 1 246-146c63 0 117 15 161 47 45 31 74 74 89 128l-111 32a147 147 0 0 0-140-102c-37 0-67 8-91 26-23 17-41 40-52 70s-17 64-17 103c0 59 13 107 40 144 27 36 67 55 120 55 35 0 64-9 86-25 23-17 40-40 52-71l113 26c-19 56-50 100-94 130-43 30-96 45-157 45Z"/><path fill="#1C1E21" fill-rule="evenodd" d="M3079 901c44 25 94 38 151 38 56 0 107-14 152-42 46-29 80-69 102-120l-109-35c-15 29-34 52-60 68-25 16-55 24-90 24-53 0-94-18-122-52-23-29-37-68-41-116h430c4-69-4-128-25-179a243 243 0 0 0-242-156c-56 0-106 12-148 38-42 25-75 61-99 107s-35 101-35 163c0 60 12 112 35 157 24 44 58 80 101 105Zm298-322c-5-44-17-78-35-102-25-32-62-48-113-48-56 0-98 18-126 53-19 25-32 57-38 97h312ZM3913 155h-302v768h331c49 0 90-10 124-28 35-19 61-45 79-78 18-34 27-73 27-118 0-47-13-88-40-122-19-27-46-47-78-60 20-12 37-28 50-47 21-30 31-67 31-109a208 208 0 0 0-99-176c-33-20-74-30-123-30Zm12 662h-201V573h208c25 0 48 6 66 17 20 11 34 25 44 44s16 39 16 63-6 46-18 64c-11 18-27 32-47 41-20 10-43 15-68 15Zm-14-349h-187V260h187c34 0 61 9 80 29 20 19 30 43 30 73 0 23-5 42-15 58a97 97 0 0 1-39 36c-16 8-35 12-56 12ZM4382 901c44 25 94 38 151 38 56 0 107-14 152-42 46-29 80-69 102-120l-109-35c-14 29-34 52-60 68-25 16-55 24-90 24-53 0-94-18-122-52-23-29-36-68-41-116h430c4-69-4-128-25-179a243 243 0 0 0-242-156 261 261 0 0 0-247 145c-23 46-35 101-35 163 0 60 12 112 36 157 23 44 58 80 100 105Zm298-322c-5-44-17-78-35-102-25-32-62-48-113-48-56 0-98 18-126 53-19 25-32 57-38 97h312ZM4959 915c29 16 65 24 108 24 53 0 98-11 135-32 28-17 52-39 72-68v84h99V568c0-24-1-47-4-68-2-21-7-41-17-59-16-38-46-67-84-84s-83-26-134-26c-67 0-120 14-160 43-40 30-67 69-81 118l104 32c10-32 27-55 52-69 26-14 55-22 84-21 48 0 81 11 101 33 17 19 27 46 29 83a21852 21852 0 0 1-168 25c-29 5-59 12-87 20-30 10-55 22-75 38-19 15-35 34-46 56-10 22-15 48-15 77 0 31 7 60 22 86s37 47 65 63Zm209-84c-23 11-50 16-82 16-24 0-43-3-58-11-16-7-27-17-35-30a81 81 0 0 1-1-80c8-11 17-20 29-27 13-8 26-15 41-20a2527 2527 0 0 1 195-35l4-1-1 33c0 19-4 39-10 57-4 19-13 37-27 55-14 17-32 32-55 43Z" clip-rule="evenodd"/><path fill="#1C1E21" d="M5511 347h99v92l14-21c11-15 24-28 40-39a213 213 0 0 1 104-35c18-1 36-1 54 3v104c-19-5-40-6-63-4a142 142 0 0 0-106 65c-11 17-18 36-22 55-5 21-7 42-7 65v291h-113V347Z"/></svg>