<svg xmlns="http://www.w3.org/2000/svg" width="1024" height="1024" fill="none"><path fill="#fff" d="M19 19C31 7 47 0 64 0h896a64 64 0 0 1 64 64v324c0 42-57 60-82 26a937 937 0 0 0-121-139l-1-7c9-60-30-115-87-123-44-6-85 17-106 55-8 16-23 29-40 32-89 14-138 45-168 70-32 26-67 77-83 101-5 9-13 15-23 18l-165 55c-17 6-29 21-28 39 7 178 158 205 280 226 62 11 117 21 141 49 26 29 66 96 108 171 16 29-5 63-37 63H64a64 64 0 0 1-64-64V64c0-17 7-33 19-45Z"/><path fill="#fff" d="M497 460a53 53 0 1 0 39-99 53 53 0 0 0-39 99Z"/></svg>